<?xml version="1.0" standalone="no"?>
<!DOCTYPE svg PUBLIC "-//W3C//DTD SVG 20010904//EN"
 "http://www.w3.org/TR/2001/REC-SVG-20010904/DTD/svg10.dtd">
<svg version="1.0" xmlns="http://www.w3.org/2000/svg"
 width="260.000000pt" height="260.000000pt" viewBox="0 0 260.000000 260.000000"
 preserveAspectRatio="xMidYMid meet">
<metadata>
Created by potrace 1.11, written by Peter Selinger 2001-2013
</metadata>
<g transform="translate(0.000000,260.000000) scale(0.100000,-0.100000)"
fill="#000000" stroke="none">
<path d="M2027 2563 c-26 -30 -21 -60 22 -111 164 -198 164 -488 0 -687 -42
-50 -49 -84 -23 -109 38 -38 87 -8 158 99 156 235 133 562 -56 784 -34 40 -77
50 -101 24z"/>
<path d="M1010 2481 c-100 -31 -182 -111 -207 -204 -14 -50 -21 -60 -49 -72
-87 -36 -78 -177 12 -199 22 -6 24 -11 19 -39 -3 -18 -7 -68 -10 -112 -3 -44
-7 -90 -10 -102 l-5 -22 326 0 325 -1 -5 33 c-3 17 -8 68 -11 112 -3 44 -8 87
-11 96 -3 11 7 24 30 37 50 30 70 64 63 113 -6 47 -21 68 -63 85 -26 11 -33
22 -48 75 -22 82 -104 166 -185 192 -55 18 -128 21 -171 8z"/>
<path d="M1876 2428 c-20 -30 -16 -48 18 -89 80 -94 107 -239 66 -348 -12 -33
-36 -77 -54 -98 -43 -51 -50 -71 -31 -99 32 -49 89 -23 152 71 104 154 83 405
-44 545 -42 47 -83 54 -107 18z"/>
<path d="M1736 2304 c-23 -23 -20 -49 14 -95 16 -23 32 -57 36 -76 7 -40 -16
-111 -46 -138 -35 -32 -20 -85 27 -99 30 -9 85 41 112 104 42 96 25 207 -43
288 -31 36 -74 43 -100 16z"/>
<path d="M1593 2162 c-68 -53 2 -152 78 -111 45 23 39 102 -8 120 -34 13 -45
11 -70 -9z"/>
<path d="M739 1476 c0 -23 -2 -48 -3 -56 -2 -8 -6 -53 -10 -100 -4 -47 -9
-103 -11 -126 l-5 -40 376 0 376 0 -6 50 c-3 28 -11 110 -17 182 l-12 130
-343 0 -344 0 -1 -40z"/>
<path d="M689 912 c0 -15 -2 -38 -4 -52 -5 -31 -25 -249 -25 -270 0 -13 54
-15 426 -15 l426 0 -6 85 c-4 47 -10 110 -13 140 -10 98 -11 105 -12 122 -1
16 -32 17 -396 17 l-395 0 -1 -27z"/>
<path d="M638 343 c0 -10 -2 -22 -3 -28 -1 -5 -5 -46 -9 -90 -3 -44 -9 -101
-12 -126 -3 -25 0 -57 5 -72 l11 -27 455 0 455 0 11 26 c8 23 2 152 -15 304
l-3 25 -446 3 c-421 2 -447 1 -449 -15z"/>
</g>
</svg>
